<svg width="176" height="176" viewBox="0 0 176 176" fill="none" xmlns="http://www.w3.org/2000/svg">
<path d="M87.65 0.149994C135.975 0.149994 175.15 39.3251 175.15 87.65C175.15 94.3528 174.396 100.879 172.968 107.15H2.33164C0.904429 100.879 0.150002 94.3528 0.150002 87.65C0.150002 39.3251 39.3251 0.149994 87.65 0.149994Z" fill="url(#paint0_linear_1017_79)"/>
<path d="M172.968 107.15V107.3H173.088L173.115 107.183L172.968 107.15ZM2.33164 107.15L2.18538 107.183L2.21195 107.3H2.33164V107.15ZM87.65 0.149994V0.299994C135.892 0.299994 175 39.4079 175 87.65H175.15H175.3C175.3 39.2422 136.058 -6.10948e-06 87.65 -6.10948e-06V0.149994ZM175.15 87.65H175C175 94.3415 174.247 100.857 172.822 107.117L172.968 107.15L173.115 107.183C174.544 100.902 175.3 94.3641 175.3 87.65H175.15ZM172.968 107.15V107H2.33164V107.15V107.3H172.968V107.15ZM2.33164 107.15L2.4779 107.117C1.05315 100.857 0.300002 94.3415 0.300002 87.65H0.150002H1.51992e-06C1.51992e-06 94.3641 0.755703 100.902 2.18538 107.183L2.33164 107.15ZM0.150002 87.65H0.300002C0.300002 39.4079 39.4079 0.299994 87.65 0.299994V0.149994V-6.10948e-06C39.2422 -6.10948e-06 1.51992e-06 39.2422 1.51992e-06 87.65H0.150002Z" fill="#989898"/>
<path d="M70.8461 62.3043C75.4088 62.4277 79.9919 65.2652 83.2221 70.483C89.7183 80.9768 96.7061 97.951 98.7162 101.971C99.22 102.979 99.7586 103.806 100.328 104.399C100.896 104.991 101.505 105.361 102.147 105.428C102.793 105.496 103.443 105.255 104.082 104.688C104.72 104.123 105.355 103.23 105.984 101.971C107.236 99.467 108.613 96.2106 110.049 92.9644C111.487 89.7141 112.984 86.472 114.479 83.981C115.972 81.4932 117.558 80.3043 119.1 80.3043C120.642 80.3043 122.228 81.4932 123.721 83.981C125.217 86.4734 128.213 92.5909 130.839 98.0934C132.151 100.843 133.371 103.436 134.261 105.342C134.706 106.295 135.07 107.077 135.322 107.62C135.447 107.891 135.545 108.103 135.612 108.247C135.613 108.249 135.614 108.252 135.616 108.254H40.0824C40.0947 108.227 40.1079 108.198 40.1225 108.166C40.2119 107.969 40.3447 107.679 40.5151 107.305C40.8558 106.558 41.3502 105.479 41.9633 104.147C43.1897 101.483 44.8923 97.8115 46.7983 93.7809C50.611 85.7179 55.2339 76.2227 58.4809 70.4781C61.7097 64.7657 66.288 62.1811 70.8461 62.3043Z" fill="url(#paint1_linear_1017_79)" stroke="#989898" stroke-width="0.3"/>
<path d="M173.07 107.3C164.196 146.238 129.319 175.3 87.6448 175.3C45.9705 175.3 11.0937 146.238 2.22 107.3H173.07Z" fill="white"/>
<mask id="path-5-inside-1_1017_79" fill="white">
<path d="M44.65 71.15C47.5444 71.15 50.1647 72.7676 52.0641 75.3834C52.7394 75.2302 53.4368 75.15 54.15 75.15C59.6989 75.15 64.2852 80.0059 65.0387 86.318C73.2831 86.7957 79.9332 88.2543 82.7262 90.15H17.15C17.15 88.8432 19.6567 87.7313 23.1549 87.3199C23.1534 87.2634 23.15 87.2068 23.15 87.15C23.15 82.7317 27.6272 79.15 33.15 79.15C33.8532 79.15 34.5395 79.2075 35.2018 79.318C36.9041 74.4828 40.4951 71.15 44.65 71.15Z"/>
</mask>
<path d="M44.65 71.15C47.5444 71.15 50.1647 72.7676 52.0641 75.3834C52.7394 75.2302 53.4368 75.15 54.15 75.15C59.6989 75.15 64.2852 80.0059 65.0387 86.318C73.2831 86.7957 79.9332 88.2543 82.7262 90.15H17.15C17.15 88.8432 19.6567 87.7313 23.1549 87.3199C23.1534 87.2634 23.15 87.2068 23.15 87.15C23.15 82.7317 27.6272 79.15 33.15 79.15C33.8532 79.15 34.5395 79.2075 35.2018 79.318C36.9041 74.4828 40.4951 71.15 44.65 71.15Z" fill="white"/>
<path d="M52.0641 75.3834L51.8213 75.5597L51.9375 75.7197L52.1304 75.676L52.0641 75.3834ZM65.0387 86.318L64.7408 86.3535L64.7706 86.6029L65.0213 86.6175L65.0387 86.318ZM82.7262 90.15V90.45H83.7024L82.8947 89.9018L82.7262 90.15ZM17.15 90.15H16.85V90.45H17.15V90.15ZM23.1549 87.3199L23.1899 87.6179L23.4619 87.5859L23.4548 87.3121L23.1549 87.3199ZM35.2018 79.318L35.1524 79.6139L35.401 79.6553L35.4847 79.4176L35.2018 79.318ZM44.65 71.15V71.45C47.4244 71.45 49.9627 72.9999 51.8213 75.5597L52.0641 75.3834L52.3068 75.2071C50.3668 72.5352 47.6644 70.85 44.65 70.85V71.15ZM52.0641 75.3834L52.1304 75.676C52.7843 75.5276 53.4594 75.45 54.15 75.45V75.15V74.85C53.4142 74.85 52.6946 74.9327 51.9977 75.0908L52.0641 75.3834ZM54.15 75.15V75.45C59.5077 75.45 64.0002 80.1498 64.7408 86.3535L65.0387 86.318L65.3366 86.2824C64.5702 79.862 59.8901 74.85 54.15 74.85V75.15ZM65.0387 86.318L65.0213 86.6175C69.1316 86.8556 72.8393 87.3381 75.863 87.9954C78.8957 88.6547 81.2102 89.4836 82.5577 90.3982L82.7262 90.15L82.8947 89.9018C81.4492 88.9207 79.0421 88.0725 75.9904 87.4091C72.9297 86.7437 69.1901 86.258 65.056 86.0185L65.0387 86.318ZM82.7262 90.15V89.85H17.15V90.15V90.45H82.7262V90.15ZM17.15 90.15H17.45C17.45 89.9263 17.5559 89.6832 17.8102 89.4247C18.0656 89.1651 18.4534 88.9091 18.9667 88.6714C19.9921 88.1965 21.4594 87.8214 23.1899 87.6179L23.1549 87.3199L23.1198 87.022C21.3522 87.2298 19.8171 87.6163 18.7146 88.1269C18.1639 88.382 17.7064 88.6747 17.3825 89.0039C17.0574 89.3344 16.85 89.7203 16.85 90.15H17.15ZM23.1549 87.3199L23.4548 87.3121C23.4529 87.2402 23.45 87.2033 23.45 87.15H23.15H22.85C22.85 87.2103 22.8539 87.2866 22.855 87.3277L23.1549 87.3199ZM23.15 87.15H23.45C23.45 82.9564 27.7269 79.45 33.15 79.45V79.15V78.85C27.5274 78.85 22.85 82.507 22.85 87.15H23.15ZM33.15 79.15V79.45C33.8369 79.45 34.5067 79.5062 35.1524 79.6139L35.2018 79.318L35.2511 79.0221C34.5724 78.9088 33.8695 78.85 33.15 78.85V79.15ZM35.2018 79.318L35.4847 79.4176C37.1634 74.6495 40.6706 71.45 44.65 71.45V71.15V70.85C40.3196 70.85 36.6448 74.316 34.9188 79.2183L35.2018 79.318Z" fill="#989898" mask="url(#path-5-inside-1_1017_79)"/>
<path d="M50.03 129.15V114.25H51.13L56.69 122.53H56.15L61.73 114.25H62.83V129.15H61.53V116.15L61.85 116.33L56.45 124.39H56.39L50.99 116.33L51.33 116.15V129.15H50.03ZM69.853 129.39C68.8396 129.39 67.9263 129.15 67.113 128.67C66.2996 128.19 65.653 127.53 65.173 126.69C64.7063 125.837 64.473 124.883 64.473 123.83C64.473 122.777 64.7063 121.83 65.173 120.99C65.653 120.15 66.293 119.49 67.093 119.01C67.9063 118.53 68.8263 118.29 69.853 118.29C70.8663 118.29 71.7796 118.53 72.593 119.01C73.4063 119.49 74.0463 120.15 74.513 120.99C74.9796 121.817 75.213 122.763 75.213 123.83C75.213 124.897 74.973 125.85 74.493 126.69C74.013 127.53 73.3663 128.19 72.553 128.67C71.753 129.15 70.853 129.39 69.853 129.39ZM69.853 128.21C70.613 128.21 71.2996 128.023 71.913 127.65C72.5396 127.263 73.033 126.737 73.393 126.07C73.753 125.403 73.933 124.657 73.933 123.83C73.933 123.003 73.753 122.263 73.393 121.61C73.033 120.957 72.5463 120.437 71.933 120.05C71.3196 119.663 70.6263 119.47 69.853 119.47C69.0796 119.47 68.3796 119.663 67.753 120.05C67.1396 120.423 66.653 120.943 66.293 121.61C65.933 122.263 65.753 123.003 65.753 123.83C65.753 124.657 65.933 125.403 66.293 126.07C66.6663 126.737 67.1596 127.263 67.773 127.65C68.3863 128.023 69.0796 128.21 69.853 128.21ZM76.6566 129.15V118.53H77.8566V120.67L77.5566 120.59C77.7966 119.883 78.2232 119.323 78.8366 118.91C79.4632 118.497 80.1899 118.29 81.0166 118.29C81.7499 118.29 82.4166 118.457 83.0166 118.79C83.6166 119.123 84.0966 119.59 84.4566 120.19C84.8166 120.777 84.9966 121.45 84.9966 122.21V129.15H83.7966V122.55C83.7966 121.91 83.6699 121.363 83.4166 120.91C83.1632 120.443 82.8099 120.09 82.3566 119.85C81.9166 119.597 81.4099 119.47 80.8366 119.47C80.2366 119.47 79.7099 119.61 79.2566 119.89C78.8032 120.17 78.4566 120.557 78.2166 121.05C77.9766 121.543 77.8566 122.11 77.8566 122.75V129.15H76.6566ZM86.8819 129.15V114.25H93.0219C93.8352 114.25 94.5419 114.41 95.1419 114.73C95.7552 115.05 96.2285 115.49 96.5619 116.05C96.9085 116.61 97.0819 117.257 97.0819 117.99C97.0819 118.763 96.8819 119.45 96.4819 120.05C96.0819 120.65 95.5219 121.083 94.8019 121.35V121.01C95.3885 121.197 95.8952 121.483 96.3219 121.87C96.7619 122.243 97.0952 122.69 97.3219 123.21C97.5619 123.73 97.6819 124.29 97.6819 124.89C97.6819 126.183 97.2685 127.217 96.4419 127.99C95.6285 128.763 94.4885 129.15 93.0219 129.15H86.8819ZM88.1819 127.95H92.9419C93.9952 127.95 94.8285 127.677 95.4419 127.13C96.0685 126.583 96.3819 125.843 96.3819 124.91C96.3819 123.99 96.0752 123.257 95.4619 122.71C94.8619 122.15 94.0552 121.87 93.0419 121.87H88.1819V127.95ZM88.1819 120.69H92.9019C93.7685 120.69 94.4619 120.443 94.9819 119.95C95.5152 119.457 95.7819 118.81 95.7819 118.01C95.7819 117.21 95.5219 116.583 95.0019 116.13C94.4952 115.677 93.7952 115.45 92.9019 115.45H88.1819V120.69ZM103.969 129.39C102.969 129.39 102.069 129.15 101.269 128.67C100.469 128.177 99.8353 127.51 99.3686 126.67C98.9019 125.817 98.6686 124.863 98.6686 123.81C98.6686 122.757 98.8953 121.817 99.3486 120.99C99.8019 120.15 100.415 119.49 101.189 119.01C101.962 118.53 102.829 118.29 103.789 118.29C104.522 118.29 105.182 118.423 105.769 118.69C106.369 118.957 106.882 119.33 107.309 119.81C107.749 120.277 108.082 120.817 108.309 121.43C108.549 122.03 108.669 122.663 108.669 123.33C108.669 123.463 108.662 123.603 108.649 123.75C108.635 123.897 108.615 124.05 108.589 124.21H99.3686V123.11H107.909L107.369 123.53C107.449 122.757 107.335 122.063 107.029 121.45C106.722 120.823 106.282 120.33 105.709 119.97C105.149 119.597 104.509 119.41 103.789 119.41C103.069 119.41 102.409 119.603 101.809 119.99C101.209 120.363 100.735 120.883 100.389 121.55C100.042 122.203 99.8819 122.963 99.9086 123.83C99.8819 124.697 100.049 125.463 100.409 126.13C100.769 126.797 101.262 127.323 101.889 127.71C102.515 128.083 103.209 128.27 103.969 128.27C104.742 128.27 105.415 128.09 105.989 127.73C106.562 127.357 107.029 126.863 107.389 126.25L108.409 126.79C108.169 127.283 107.829 127.73 107.389 128.13C106.949 128.517 106.435 128.823 105.849 129.05C105.275 129.277 104.649 129.39 103.969 129.39ZM113.95 129.27C113.07 129.27 112.39 129.023 111.91 128.53C111.43 128.023 111.19 127.29 111.19 126.33V119.67H109.19V118.53H109.95C110.35 118.53 110.657 118.41 110.87 118.17C111.084 117.93 111.19 117.603 111.19 117.19V116.05H112.39V118.53H114.71V119.67H112.39V126.33C112.39 126.623 112.43 126.91 112.51 127.19C112.604 127.47 112.777 127.697 113.03 127.87C113.284 128.043 113.65 128.13 114.13 128.13C114.237 128.13 114.364 128.123 114.51 128.11C114.67 128.097 114.797 128.083 114.89 128.07V129.15C114.744 129.19 114.577 129.217 114.39 129.23C114.204 129.257 114.057 129.27 113.95 129.27ZM119.073 129.39C118.407 129.39 117.813 129.263 117.293 129.01C116.773 128.757 116.36 128.403 116.053 127.95C115.747 127.497 115.593 126.977 115.593 126.39C115.593 125.87 115.707 125.383 115.933 124.93C116.16 124.477 116.527 124.09 117.033 123.77C117.54 123.437 118.2 123.203 119.013 123.07L123.313 122.35V123.47L119.333 124.13C118.427 124.277 117.787 124.55 117.413 124.95C117.04 125.35 116.853 125.817 116.853 126.35C116.853 126.923 117.067 127.39 117.493 127.75C117.933 128.11 118.487 128.29 119.153 128.29C119.927 128.29 120.6 128.117 121.173 127.77C121.747 127.41 122.193 126.943 122.513 126.37C122.833 125.783 122.993 125.143 122.993 124.45V121.81C122.993 121.103 122.74 120.53 122.233 120.09C121.727 119.65 121.067 119.43 120.253 119.43C119.587 119.43 118.987 119.597 118.453 119.93C117.92 120.263 117.513 120.697 117.233 121.23L116.153 120.65C116.353 120.223 116.66 119.83 117.073 119.47C117.487 119.11 117.967 118.823 118.513 118.61C119.06 118.397 119.64 118.29 120.253 118.29C121.027 118.29 121.707 118.443 122.293 118.75C122.893 119.043 123.36 119.457 123.693 119.99C124.027 120.51 124.193 121.117 124.193 121.81V129.15H122.993V126.93L123.133 127.03C122.96 127.457 122.673 127.85 122.273 128.21C121.873 128.557 121.4 128.843 120.853 129.07C120.32 129.283 119.727 129.39 119.073 129.39Z" fill="#111214"/>
<path d="M65.1012 141.15V135.19H65.6212V141.15H65.1012ZM67.0288 141.15V136.902H67.5088V137.758L67.4208 137.638C67.5275 137.382 67.6982 137.179 67.9328 137.03C68.1728 136.881 68.4395 136.806 68.7328 136.806C69.0635 136.806 69.3648 136.902 69.6368 137.094C69.9088 137.281 70.0982 137.531 70.2048 137.846L70.0528 137.854C70.1435 137.529 70.3222 137.273 70.5888 137.086C70.8608 136.899 71.1622 136.806 71.4928 136.806C71.7755 136.806 72.0342 136.873 72.2688 137.006C72.5088 137.139 72.7008 137.326 72.8448 137.566C72.9942 137.801 73.0688 138.07 73.0688 138.374V141.15H72.5888V138.51C72.5888 138.254 72.5355 138.035 72.4288 137.854C72.3275 137.667 72.1915 137.526 72.0208 137.43C71.8502 137.329 71.6582 137.278 71.4448 137.278C71.2155 137.278 71.0128 137.334 70.8368 137.446C70.6662 137.558 70.5302 137.713 70.4288 137.91C70.3328 138.107 70.2848 138.334 70.2848 138.59V141.15H69.8048V138.51C69.8048 138.254 69.7542 138.035 69.6528 137.854C69.5515 137.667 69.4128 137.526 69.2368 137.43C69.0662 137.329 68.8742 137.278 68.6608 137.278C68.4315 137.278 68.2288 137.334 68.0528 137.446C67.8822 137.558 67.7488 137.713 67.6528 137.91C67.5568 138.107 67.5088 138.334 67.5088 138.59V141.15H67.0288ZM74.3023 141.15V136.902H74.7823V137.758L74.6943 137.638C74.8009 137.382 74.9716 137.179 75.2063 137.03C75.4463 136.881 75.7129 136.806 76.0063 136.806C76.3369 136.806 76.6383 136.902 76.9103 137.094C77.1823 137.281 77.3716 137.531 77.4783 137.846L77.3263 137.854C77.4169 137.529 77.5956 137.273 77.8623 137.086C78.1343 136.899 78.4356 136.806 78.7663 136.806C79.0489 136.806 79.3076 136.873 79.5423 137.006C79.7823 137.139 79.9743 137.326 80.1183 137.566C80.2676 137.801 80.3423 138.07 80.3423 138.374V141.15H79.8623V138.51C79.8623 138.254 79.8089 138.035 79.7023 137.854C79.6009 137.667 79.4649 137.526 79.2943 137.43C79.1236 137.329 78.9316 137.278 78.7183 137.278C78.4889 137.278 78.2863 137.334 78.1103 137.446C77.9396 137.558 77.8036 137.713 77.7023 137.91C77.6063 138.107 77.5583 138.334 77.5583 138.59V141.15H77.0783V138.51C77.0783 138.254 77.0276 138.035 76.9263 137.854C76.8249 137.667 76.6863 137.526 76.5103 137.43C76.3396 137.329 76.1476 137.278 75.9343 137.278C75.7049 137.278 75.5023 137.334 75.3263 137.446C75.1556 137.558 75.0223 137.713 74.9263 137.91C74.8303 138.107 74.7823 138.334 74.7823 138.59V141.15H74.3023ZM81.5757 141.15V136.902H82.0557V141.15H81.5757ZM81.5757 136.07V135.19H82.0557V136.07H81.5757ZM85.3566 142.91C85.0739 142.91 84.8126 142.865 84.5726 142.774C84.3326 142.683 84.1246 142.561 83.9486 142.406C83.7726 142.251 83.6339 142.075 83.5326 141.878L83.9646 141.646C84.0819 141.875 84.2579 142.065 84.4926 142.214C84.7326 142.363 85.0179 142.438 85.3486 142.438C85.6153 142.438 85.8633 142.385 86.0926 142.278C86.3219 142.177 86.5086 142.017 86.6526 141.798C86.8019 141.585 86.8766 141.315 86.8766 140.99V139.91L86.9646 140.022C86.8153 140.353 86.5886 140.614 86.2846 140.806C85.9806 140.993 85.6419 141.086 85.2686 141.086C84.8739 141.086 84.5193 140.99 84.2046 140.798C83.8899 140.606 83.6419 140.347 83.4606 140.022C83.2846 139.697 83.1966 139.337 83.1966 138.942C83.1966 138.547 83.2846 138.19 83.4606 137.87C83.6419 137.545 83.8873 137.286 84.1966 137.094C84.5113 136.902 84.8686 136.806 85.2686 136.806C85.6419 136.806 85.9779 136.899 86.2766 137.086C86.5753 137.267 86.8046 137.513 86.9646 137.822L86.8766 137.974V136.902H87.3566V140.99C87.3566 141.358 87.2713 141.686 87.1006 141.974C86.9299 142.267 86.6926 142.497 86.3886 142.662C86.0899 142.827 85.7459 142.91 85.3566 142.91ZM85.2846 140.606C85.5833 140.606 85.8499 140.531 86.0846 140.382C86.3246 140.233 86.5139 140.033 86.6526 139.782C86.7913 139.526 86.8606 139.246 86.8606 138.942C86.8606 138.638 86.7913 138.361 86.6526 138.11C86.5139 137.859 86.3246 137.659 86.0846 137.51C85.8499 137.361 85.5833 137.286 85.2846 137.286C84.9806 137.286 84.7086 137.361 84.4686 137.51C84.2286 137.659 84.0419 137.859 83.9086 138.11C83.7753 138.361 83.7086 138.638 83.7086 138.942C83.7086 139.246 83.7753 139.526 83.9086 139.782C84.0419 140.033 84.2259 140.233 84.4606 140.382C84.7006 140.531 84.9753 140.606 85.2846 140.606ZM88.6773 141.15V136.902H89.1573V137.694L89.0693 137.622C89.1599 137.382 89.3146 137.193 89.5333 137.054C89.7573 136.915 90.0213 136.846 90.3253 136.846H90.5973V137.326H90.2693C89.9226 137.326 89.6506 137.438 89.4533 137.662C89.2559 137.881 89.1573 138.177 89.1573 138.55V141.15H88.6773ZM92.6042 141.246C92.3376 141.246 92.1002 141.195 91.8922 141.094C91.6842 140.993 91.5189 140.851 91.3962 140.67C91.2736 140.489 91.2122 140.281 91.2122 140.046C91.2122 139.838 91.2576 139.643 91.3482 139.462C91.4389 139.281 91.5856 139.126 91.7882 138.998C91.9909 138.865 92.2549 138.771 92.5802 138.718L94.3002 138.43V138.878L92.7082 139.142C92.3456 139.201 92.0896 139.31 91.9402 139.47C91.7909 139.63 91.7162 139.817 91.7162 140.03C91.7162 140.259 91.8016 140.446 91.9722 140.59C92.1482 140.734 92.3696 140.806 92.6362 140.806C92.9456 140.806 93.2149 140.737 93.4442 140.598C93.6736 140.454 93.8522 140.267 93.9802 140.038C94.1082 139.803 94.1722 139.547 94.1722 139.27V138.214C94.1722 137.931 94.0709 137.702 93.8682 137.526C93.6656 137.35 93.4016 137.262 93.0762 137.262C92.8096 137.262 92.5696 137.329 92.3562 137.462C92.1429 137.595 91.9802 137.769 91.8682 137.982L91.4362 137.75C91.5162 137.579 91.6389 137.422 91.8042 137.278C91.9696 137.134 92.1616 137.019 92.3802 136.934C92.5989 136.849 92.8309 136.806 93.0762 136.806C93.3856 136.806 93.6576 136.867 93.8922 136.99C94.1322 137.107 94.3189 137.273 94.4522 137.486C94.5856 137.694 94.6522 137.937 94.6522 138.214V141.15H94.1722V140.262L94.2282 140.302C94.1589 140.473 94.0442 140.63 93.8842 140.774C93.7242 140.913 93.5349 141.027 93.3162 141.118C93.1029 141.203 92.8656 141.246 92.6042 141.246ZM97.44 141.198C97.088 141.198 96.816 141.099 96.624 140.902C96.432 140.699 96.336 140.406 96.336 140.022V137.358H95.536V136.902H95.84C96 136.902 96.1227 136.854 96.208 136.758C96.2934 136.662 96.336 136.531 96.336 136.366V135.91H96.816V136.902H97.744V137.358H96.816V140.022C96.816 140.139 96.832 140.254 96.864 140.366C96.9014 140.478 96.9707 140.569 97.072 140.638C97.1734 140.707 97.32 140.742 97.512 140.742C97.5547 140.742 97.6054 140.739 97.664 140.734C97.728 140.729 97.7787 140.723 97.816 140.718V141.15C97.7574 141.166 97.6907 141.177 97.616 141.182C97.5414 141.193 97.4827 141.198 97.44 141.198ZM98.9663 141.15V136.902H99.4463V141.15H98.9663ZM98.9663 136.07V135.19H99.4463V136.07H98.9663ZM102.739 141.246C102.334 141.246 101.969 141.15 101.643 140.958C101.318 140.766 101.059 140.502 100.867 140.166C100.681 139.825 100.587 139.443 100.587 139.022C100.587 138.601 100.681 138.222 100.867 137.886C101.059 137.55 101.315 137.286 101.635 137.094C101.961 136.902 102.329 136.806 102.739 136.806C103.145 136.806 103.51 136.902 103.835 137.094C104.161 137.286 104.417 137.55 104.603 137.886C104.79 138.217 104.883 138.595 104.883 139.022C104.883 139.449 104.787 139.83 104.595 140.166C104.403 140.502 104.145 140.766 103.819 140.958C103.499 141.15 103.139 141.246 102.739 141.246ZM102.739 140.774C103.043 140.774 103.318 140.699 103.563 140.55C103.814 140.395 104.011 140.185 104.155 139.918C104.299 139.651 104.371 139.353 104.371 139.022C104.371 138.691 104.299 138.395 104.155 138.134C104.011 137.873 103.817 137.665 103.571 137.51C103.326 137.355 103.049 137.278 102.739 137.278C102.43 137.278 102.15 137.355 101.899 137.51C101.654 137.659 101.459 137.867 101.315 138.134C101.171 138.395 101.099 138.691 101.099 139.022C101.099 139.353 101.171 139.651 101.315 139.918C101.465 140.185 101.662 140.395 101.907 140.55C102.153 140.699 102.43 140.774 102.739 140.774ZM106.037 141.15V136.902H106.517V137.758L106.397 137.726C106.493 137.443 106.663 137.219 106.909 137.054C107.159 136.889 107.45 136.806 107.781 136.806C108.074 136.806 108.341 136.873 108.581 137.006C108.821 137.139 109.013 137.326 109.157 137.566C109.301 137.801 109.373 138.07 109.373 138.374V141.15H108.893V138.51C108.893 138.254 108.842 138.035 108.741 137.854C108.639 137.667 108.498 137.526 108.317 137.43C108.141 137.329 107.938 137.278 107.709 137.278C107.469 137.278 107.258 137.334 107.077 137.446C106.895 137.558 106.757 137.713 106.661 137.91C106.565 138.107 106.517 138.334 106.517 138.59V141.15H106.037Z" fill="#111214"/>
<path d="M50.15 138.15H62.15M112.15 138.15H124.15" stroke="#81A456" stroke-linecap="round"/>
<circle cx="87.15" cy="156.65" r="2.5" fill="#81A456"/>
<defs>
<linearGradient id="paint0_linear_1017_79" x1="87.65" y1="0.149994" x2="87.65" y2="107.15" gradientUnits="userSpaceOnUse">
<stop stop-color="#8AB0C8"/>
<stop offset="1" stop-color="white"/>
</linearGradient>
<linearGradient id="paint1_linear_1017_79" x1="87.6" y1="62.15" x2="87.6" y2="108.404" gradientUnits="userSpaceOnUse">
<stop stop-color="#81A456"/>
<stop offset="0.947115" stop-color="white"/>
</linearGradient>
</defs>
</svg>
